<?xml version="1.0" encoding="UTF-8"?>
<svg width="14px" height="14px" viewBox="0 0 14 14" version="1.1" xmlns="http://www.w3.org/2000/svg" xmlns:xlink="http://www.w3.org/1999/xlink">
    <!-- Generator: sketchtool 40.1 (33804) - http://www.bohemiancoding.com/sketch -->
    <title>客户选中</title>
    <desc>Created with sketchtool.</desc>
    <defs></defs>
    <g id="18-icon-图标" stroke="none" stroke-width="1" fill="none" fill-rule="evenodd">
        <g id="V1.1-17【Loading-加载】" transform="translate(-1071.000000, -286.000000)" fill="#666666">
            <g id="客户选中" transform="translate(1070.000000, 285.000000)">
                <path d="M15,15.0001 L15,14.5001 L15,13.9999999 C15,12.7462181 14.2475999,12.2304854 12.2396542,11.4916803 C12.1979183,11.4763279 12.1979183,11.4763279 12.1563266,11.4610309 C10.615672,10.8942959 10.134,10.5710729 10.134,10.0111 C10.134,9.85049141 10.135152,9.73963944 10.1399578,9.36959296 L9.64,9.3631 L9.99422875,9.71597674 C10.537219,9.17090609 11.0039872,8.47515716 11.2211263,7.63408686 L10.737,7.5091 L10.9311987,7.96984598 C11.304143,7.8126546 11.597438,7.49021926 11.7712457,7.06870133 C12.0379784,6.41835552 11.9853098,5.64537737 11.539723,5.11534999 L11.6534557,5.4965284 C11.6625696,5.42041173 11.6625696,5.42041173 11.6728874,5.32791678 C11.7432573,4.675484 11.7313908,4.09740422 11.5702594,3.50705537 C11.4280063,2.98587236 11.1766942,2.52549238 10.7979938,2.14798793 C10.0997813,1.45105167 9.13707784,1.02739115 8.02318008,1.00024838 C6.88452433,1.02737542 5.92305709,1.45049192 5.22309355,2.14790085 C4.83927108,2.53091421 4.58665962,2.99854034 4.44573142,3.52855273 C4.2893315,4.11675222 4.27926169,4.69105338 4.35013328,5.34756904 C4.36037911,5.43953196 4.36037911,5.43953196 4.3695034,5.51618574 L4.49282646,5.12432153 C4.0347745,5.63797518 3.98022416,6.41397298 4.2483965,7.06783139 C4.4247009,7.49207797 4.71477272,7.81304055 5.08680128,7.96984598 L5.281,7.5091 L4.79671361,7.63346517 C5.01322258,8.47656577 5.48172526,9.17793204 6.02044661,9.71665339 L6.374,9.3631 L5.8740418,9.36956498 C5.87541099,9.47544897 5.87471649,9.55896253 5.87190578,9.72786154 C5.87035421,9.82038271 5.87035421,9.82038271 5.86931096,9.91477586 C5.8690577,9.95119041 5.8690577,9.95119041 5.869,9.9881 C5.869,10.5687936 5.38571392,10.8836812 3.81025574,11.4324142 C3.79015867,11.4394137 3.79015867,11.4394137 3.77002907,11.4464249 C1.74327905,12.1523949 1,12.6423169 1,13.8941 L1,14.5001 L1,15.0001 L1.5,15.0001 L14.5,15.0001 L15,15.0001 Z" id="Page-1"></path>
            </g>
        </g>
    </g>
</svg>