<?xml version="1.0" encoding="UTF-8"?>
<svg width="14px" height="14px" viewBox="0 0 14 14" version="1.1" xmlns="http://www.w3.org/2000/svg" xmlns:xlink="http://www.w3.org/1999/xlink">
    <!-- Generator: sketchtool 40.1 (33804) - http://www.bohemiancoding.com/sketch -->
    <title>客户默认</title>
    <desc>Created with sketchtool.</desc>
    <defs></defs>
    <g id="18-icon-图标" stroke="none" stroke-width="1" fill="none" fill-rule="evenodd">
        <g id="V1.1-17【Loading-加载】" transform="translate(-993.000000, -286.000000)" fill="#666666">
            <g id="客户默认" transform="translate(992.000000, 285.000000)">
                <path d="M1.5,14.0001 L2,14.5001 L2,13.8941 C2,13.2767164 2.49810145,12.9483998 4.09897093,12.3907751 C4.11905884,12.3837784 4.11905884,12.3837784 4.13917603,12.3767719 C6.14664024,11.677571 6.869,11.2069135 6.869,9.9881 C6.86905046,9.95565859 6.86905046,9.95565859 6.8692783,9.92285735 C6.8702391,9.83583227 6.8702391,9.83583227 6.87176735,9.74450058 C6.87473404,9.56622827 6.87549116,9.47518376 6.8739582,9.35663502 L6.87132916,9.15332238 L6.72755339,9.00954661 C6.30420442,8.58619764 5.92994102,8.02591114 5.76528639,7.38473483 L5.70362836,7.14463428 L5.47519872,7.04835402 C5.36279122,7.00097565 5.25306928,6.87956904 5.17271567,6.68621816 C5.03873128,6.35952287 5.06504935,5.98513912 5.23917354,5.78987847 L5.38912001,5.6217304 L5.3624966,5.39801426 C5.3536362,5.32354527 5.3536362,5.32354527 5.344357,5.24024149 C5.28551644,4.69517473 5.29365212,4.23118065 5.41215152,3.78552001 C5.50990049,3.41789903 5.67804881,3.10662833 5.92918025,2.85602614 C6.45002384,2.33708365 7.16884326,2.02075009 8.02316868,1.9999519 C8.85260399,2.02075611 9.57233454,2.33749063 10.0917702,2.85597671 C10.3399113,3.10333435 10.5070641,3.4095425 10.6055483,3.77036624 C10.7272403,4.21621777 10.7367941,4.68163465 10.6786538,5.22068104 C10.6693698,5.30392746 10.6693698,5.30392746 10.6605443,5.3776716 L10.6347784,5.59291588 L10.774277,5.75885001 C10.9561297,5.97516464 10.9821692,6.35732729 10.8463965,6.68836861 C10.7681979,6.8780132 10.6570568,7.00019673 10.5428013,7.04835402 L10.31474,7.14447902 L10.2528737,7.38411314 C10.0878561,8.02329522 9.71440809,8.57994414 9.28577125,9.01022326 L9.14267514,9.15386763 L9.14004216,9.35660704 C9.13517166,9.7316357 9.134,9.84437526 9.134,10.0111 C9.134,11.1988696 9.84609502,11.6767166 11.8110904,12.3995467 C11.8527757,12.4148781 11.8527757,12.4148781 11.8943458,12.4301696 C13.4890511,13.0169267 14,13.3671566 14,13.9999999 L14,14.5001 L14.5,14.0001 L1.5,14.0001 Z M15,15.0001 L15,14.5001 L15,13.9999999 C15,12.7462181 14.2475999,12.2304854 12.2396542,11.4916803 C12.1979183,11.4763279 12.1979183,11.4763279 12.1563266,11.4610309 C10.615672,10.8942959 10.134,10.5710729 10.134,10.0111 C10.134,9.85049141 10.135152,9.73963944 10.1399578,9.36959296 L9.64,9.3631 L9.99422875,9.71597674 C10.537219,9.17090609 11.0039872,8.47515716 11.2211263,7.63408686 L10.737,7.5091 L10.9311987,7.96984598 C11.304143,7.8126546 11.597438,7.49021926 11.7712457,7.06870133 C12.0379784,6.41835552 11.9853098,5.64537737 11.539723,5.11534999 L11.6534557,5.4965284 C11.6625696,5.42041173 11.6625696,5.42041173 11.6728874,5.32791678 C11.7432573,4.675484 11.7313908,4.09740422 11.5702594,3.50705537 C11.4280063,2.98587236 11.1766942,2.52549238 10.7979938,2.14798793 C10.0997813,1.45105167 9.13707784,1.02739115 8.02318008,1.00024838 C6.88452433,1.02737542 5.92305709,1.45049192 5.22309355,2.14790085 C4.83927108,2.53091421 4.58665962,2.99854034 4.44573142,3.52855273 C4.2893315,4.11675222 4.27926169,4.69105338 4.35013328,5.34756904 C4.36037911,5.43953196 4.36037911,5.43953196 4.3695034,5.51618574 L4.49282646,5.12432153 C4.0347745,5.63797518 3.98022416,6.41397298 4.2483965,7.06783139 C4.4247009,7.49207797 4.71477272,7.81304055 5.08680128,7.96984598 L5.281,7.5091 L4.79671361,7.63346517 C5.01322258,8.47656577 5.48172526,9.17793204 6.02044661,9.71665339 L6.374,9.3631 L5.8740418,9.36956498 C5.87541099,9.47544897 5.87471649,9.55896253 5.87190578,9.72786154 C5.87035421,9.82038271 5.87035421,9.82038271 5.86931096,9.91477586 C5.8690577,9.95119041 5.8690577,9.95119041 5.869,9.9881 C5.869,10.5687936 5.38571392,10.8836812 3.81025574,11.4324142 C3.79015867,11.4394137 3.79015867,11.4394137 3.77002907,11.4464249 C1.74327905,12.1523949 1,12.6423169 1,13.8941 L1,14.5001 L1,15.0001 L1.5,15.0001 L14.5,15.0001 L15,15.0001 Z" id="Page-1"></path>
            </g>
        </g>
    </g>
</svg>