<?xml version="1.0" encoding="UTF-8"?>
<svg width="14px" height="14px" viewBox="0 0 14 14" version="1.1" xmlns="http://www.w3.org/2000/svg" xmlns:xlink="http://www.w3.org/1999/xlink">
    <!-- Generator: Sketch 40.3 (33839) - http://www.bohemiancoding.com/sketch -->
    <title>装修店铺</title>
    <desc>Created with Sketch.</desc>
    <defs></defs>
    <g id="18-icon-图标" stroke="none" stroke-width="1" fill="none" fill-rule="evenodd">
        <g id="V1.1-17【Loading-加载】" transform="translate(-603.000000, -639.000000)" fill="#666666">
            <g id="装修店铺" transform="translate(603.000000, 639.000000)">
                <path d="M14,4.5 L14,6.00104344 C14,6.55733967 13.5577294,7.08845413 13.0121609,7.19756782 L10.9617818,7.60764365 C9.87093353,7.82581329 9,8.89449617 9,9.99791312 L9,13.009222 C9,13.5490248 8.54809015,14 7.9906311,14 L6.0093689,14 C5.44335318,14 5,13.5564136 5,13.009222 L5,9.99791312 C5,8.89826062 4.12168039,7.82433608 3.03821824,7.60764365 L0.987839103,7.19756782 C0.443716645,7.08874333 0,6.55275191 0,6.00104344 L0,4.5 L0,0 L14,0 L14,4.5 Z M1,1 L13,1 L13,4 L1,4 L1,1 Z" id="Combined-Shape"></path>
            </g>
        </g>
    </g>
</svg>