<?xml version="1.0" encoding="UTF-8"?>
<svg width="14px" height="14px" viewBox="0 0 14 14" version="1.1" xmlns="http://www.w3.org/2000/svg" xmlns:xlink="http://www.w3.org/1999/xlink">
    <!-- Generator: sketchtool 40.1 (33804) - http://www.bohemiancoding.com/sketch -->
    <title>概况默认</title>
    <desc>Created with sketchtool.</desc>
    <defs></defs>
    <g id="Page-1" stroke="none" stroke-width="1" fill="none" fill-rule="evenodd">
        <g id="Artboard" transform="translate(-55.000000, -46.000000)" fill="#666666">
            <g id="概况默认" transform="translate(54.000000, 45.000000)">
                <path d="M14,11 L14,3 L2,3 L2,11 L14,11 L14,11 L14,11 L14,11 L14,11 L14,11 Z M8.25,12 L7.75,12 L5.5,15 L4,15 L6.25,12 L1,12 L1,2 L6,2 L6,1 L7,1 L7,2 L9,2 L9,1 L10,1 L10,2 L15,2 L15,12 L9.75,12 L12,15 L10.5,15 L8.25,12 L8.25,12 L8.25,12 L8.25,12 L8.25,12 L8.25,12 Z" id="Combined-Shape"></path>
                <polygon id="Path-3" points="6.79170763 6.38321877 8.86653571 8.6386979 9.20829241 9 9.55004911 8.6386979 11 7.10582293 10.3164866 6.38321874 9.20829248 7.61678123 7.13346429 5.3613021 6.79170759 5 6.44995089 5.3613021 5 6.89417707 5.6835134 7.61678126"></polygon>
            </g>
        </g>
    </g>
</svg>
